<svg xmlns="http://www.w3.org/2000/svg" xmlns:xlink="http://www.w3.org/1999/xlink" contentStyleType="text/css" data-diagram-type="ACTIVITY" height="1437px" preserveAspectRatio="none" style="width:413px;height:1437px;background:#FFFFFF;" version="1.1" viewBox="0 0 413 1437" width="413px" zoomAndPan="magnify"><?plantuml 1.2026.3beta6?><defs/><g><ellipse cx="198.5546" cy="25" fill="#222222" rx="10" ry="10" style="stroke:#222222;stroke-width:1;"/><rect fill="#3B82F6" height="62.2656" rx="6" ry="6" style="stroke:#CBD5E1;stroke-width:1.2;" width="228.7964" x="84.1564" y="55"/><text fill="#1E293B" font-family="sans-serif" font-size="13" lengthAdjust="spacing" textLength="8.2646" x="100.1564" y="83.0669">&#160;&#160;</text><text fill="#1E293B" font-family="sans-serif" font-size="13" font-weight="700" lengthAdjust="spacing" textLength="117.0001" x="108.421" y="83.0669">&#29992;&#25143;&#28040;&#24687;&#36827;&#20837;&#32534;&#25490;&#22120;</text><text fill="#64748B" font-family="sans-serif" font-size="13" lengthAdjust="spacing" textLength="188.5317" x="100.1564" y="98.1997">ChatPreparationOrchestrator</text><text fill="#1E293B" font-family="sans-serif" font-size="13" lengthAdjust="spacing" textLength="8.2646" x="288.6881" y="98.1997">&#160;&#160;</text><rect fill="#F8FAFC" height="121.3984" rx="6" ry="6" style="stroke:#CBD5E1;stroke-width:1.5;" width="204.1661" x="96.4715" y="127.2656"/><path d="M268.5365,127.2656 L268.5365,147.3984 L258.5365,157.3984 L96.4715,157.3984" fill="none" style="stroke:#CBD5E1;stroke-width:1.5;"/><text fill="#475569" font-family="sans-serif" font-size="13" lengthAdjust="spacing" textLength="8.2646" x="105.4715" y="146.3325">&#160;&#160;</text><text fill="#2563EB" font-family="sans-serif" font-size="13" font-weight="700" lengthAdjust="spacing" textLength="47.271" x="113.7362" y="146.3325">Step 1</text><text fill="#475569" font-family="sans-serif" font-size="13" lengthAdjust="spacing" textLength="8.2646" x="161.0071" y="146.3325">&#160;&#160;</text><text fill="#475569" font-family="sans-serif" font-size="13" lengthAdjust="spacing" textLength="78.0001" x="169.2718" y="146.3325">&#20250;&#35805;&#35760;&#24518;&#21152;&#36733;</text><text fill="#475569" font-family="sans-serif" font-size="13" lengthAdjust="spacing" textLength="8.2646" x="247.2719" y="146.3325">&#160;&#160;</text><rect fill="#F8FAFC" height="62.2656" rx="6" ry="6" style="stroke:#CBD5E1;stroke-width:1.2;" width="184.1661" x="106.4715" y="174.3984"/><text fill="#1E293B" font-family="sans-serif" font-size="13" lengthAdjust="spacing" textLength="143.9015" x="130.7362" y="202.4653">&#20174; MySQL &#21152;&#36733;&#21382;&#21490;&#35760;&#24518;</text><text fill="#64748B" font-family="sans-serif" font-size="13" lengthAdjust="spacing" textLength="104.0001" x="122.4715" y="217.5981">&#25353;&#31574;&#30053;&#32452;&#35013;&#19978;&#19979;&#25991;</text><text fill="#1E293B" font-family="sans-serif" font-size="13" lengthAdjust="spacing" textLength="8.2646" x="226.4716" y="217.5981">&#160;&#160;</text><rect fill="#F8FAFC" height="285.9297" rx="6" ry="6" style="stroke:#CBD5E1;stroke-width:1.5;" width="229.2648" x="83.9221" y="258.6641"/><path d="M285.8212,258.6641 L285.8212,278.7969 L275.8212,288.7969 L83.9221,288.7969" fill="none" style="stroke:#CBD5E1;stroke-width:1.5;"/><text fill="#475569" font-family="sans-serif" font-size="13" lengthAdjust="spacing" textLength="8.2646" x="92.9221" y="277.731">&#160;&#160;</text><text fill="#2563EB" font-family="sans-serif" font-size="13" font-weight="700" lengthAdjust="spacing" textLength="47.271" x="101.1868" y="277.731">Step 2</text><text fill="#475569" font-family="sans-serif" font-size="13" lengthAdjust="spacing" textLength="8.2646" x="148.4578" y="277.731">&#160;&#160;</text><text fill="#475569" font-family="sans-serif" font-size="13" lengthAdjust="spacing" textLength="107.8341" x="156.7224" y="277.731">LLM &#20250;&#35805;&#20851;&#31995;&#35299;&#26512;</text><text fill="#475569" font-family="sans-serif" font-size="13" lengthAdjust="spacing" textLength="8.2646" x="264.5565" y="277.731">&#160;&#160;</text><rect fill="#F8FAFC" height="62.2656" rx="6" ry="6" style="stroke:#CBD5E1;stroke-width:1.2;" width="209.2648" x="93.9221" y="305.7969"/><text fill="#1E293B" font-family="sans-serif" font-size="13" lengthAdjust="spacing" textLength="107.8341" x="118.1868" y="333.8638">LLM &#20998;&#26512;&#29992;&#25143;&#24847;&#22270;</text><text fill="#64748B" font-family="sans-serif" font-size="13" lengthAdjust="spacing" textLength="169.0002" x="109.9221" y="348.9966">&#32467;&#21512;&#21382;&#21490;&#19978;&#19979;&#25991;&#29702;&#35299;&#24403;&#21069;&#38382;&#39064;</text><text fill="#1E293B" font-family="sans-serif" font-size="13" lengthAdjust="spacing" textLength="8.2646" x="278.9223" y="348.9966">&#160;&#160;</text><rect fill="#F8FAFC" height="62.2656" rx="6" ry="6" style="stroke:#CBD5E1;stroke-width:1.2;" width="157.2648" x="119.9222" y="388.0625"/><text fill="#1E293B" font-family="sans-serif" font-size="13" lengthAdjust="spacing" textLength="52.0001" x="144.1868" y="416.1294">&#38382;&#39064;&#25913;&#20889;</text><text fill="#64748B" font-family="sans-serif" font-size="13" lengthAdjust="spacing" textLength="117.0001" x="135.9222" y="431.2622">&#34917;&#20840;&#25351;&#20195;&#12289;&#30465;&#30053;&#20027;&#35821;</text><text fill="#1E293B" font-family="sans-serif" font-size="13" lengthAdjust="spacing" textLength="8.2646" x="252.9223" y="431.2622">&#160;&#160;</text><rect fill="#F8FAFC" height="62.2656" rx="6" ry="6" style="stroke:#CBD5E1;stroke-width:1.2;" width="182.5538" x="107.2776" y="470.3281"/><text fill="#1E293B" font-family="sans-serif" font-size="13" lengthAdjust="spacing" textLength="78.0001" x="131.5423" y="498.395">&#36335;&#30001;&#26041;&#21521;&#21028;&#23450;</text><text fill="#64748B" font-family="sans-serif" font-size="13" lengthAdjust="spacing" textLength="142.2892" x="123.2776" y="513.5278">&#30693;&#35782;&#38382;&#31572; / &#24320;&#25918;&#24335; / &#27495;&#20041;</text><text fill="#1E293B" font-family="sans-serif" font-size="13" lengthAdjust="spacing" textLength="8.2646" x="265.5668" y="513.5278">&#160;&#160;</text><rect fill="#F8FAFC" height="324.0352" rx="6" ry="6" style="stroke:#CBD5E1;stroke-width:1.5;" width="201.7871" x="103.661" y="554.5938"/><path d="M249.726,554.5938 L249.726,574.7266 L239.726,584.7266 L103.661,584.7266" fill="none" style="stroke:#CBD5E1;stroke-width:1.5;"/><text fill="#475569" font-family="sans-serif" font-size="13" lengthAdjust="spacing" textLength="8.2646" x="112.661" y="573.6606">&#160;&#160;</text><text fill="#2563EB" font-family="sans-serif" font-size="13" font-weight="700" lengthAdjust="spacing" textLength="47.271" x="120.9257" y="573.6606">Step 3</text><text fill="#475569" font-family="sans-serif" font-size="13" lengthAdjust="spacing" textLength="8.2646" x="168.1967" y="573.6606">&#160;&#160;</text><text fill="#475569" font-family="sans-serif" font-size="13" lengthAdjust="spacing" textLength="52.0001" x="176.4613" y="573.6606">&#27495;&#20041;&#26816;&#27979;</text><text fill="#475569" font-family="sans-serif" font-size="13" lengthAdjust="spacing" textLength="8.2646" x="228.4614" y="573.6606">&#160;&#160;</text><rect fill="#DC2626" height="62.2656" rx="6" ry="6" style="stroke:#CBD5E1;stroke-width:1.2;" width="144.2648" x="126.4222" y="658.0977"/><text fill="#1E293B" font-family="sans-serif" font-size="13" lengthAdjust="spacing" textLength="8.2646" x="142.4222" y="686.1646">&#160;&#160;</text><text fill="#FFFFFF" font-family="sans-serif" font-size="13" font-weight="700" lengthAdjust="spacing" textLength="78.0001" x="150.6868" y="686.1646">&#29983;&#25104;&#28548;&#28165;&#38382;&#39064;</text><text fill="#FEE2E2" font-family="sans-serif" font-size="13" lengthAdjust="spacing" textLength="104.0001" x="142.4222" y="701.2974">&#35201;&#27714;&#29992;&#25143;&#34917;&#20805;&#20449;&#24687;</text><text fill="#1E293B" font-family="sans-serif" font-size="13" lengthAdjust="spacing" textLength="8.2646" x="246.4223" y="701.2974">&#160;&#160;</text><rect fill="#F8FAFC" height="62.2656" rx="6" ry="6" style="stroke:#CBD5E1;stroke-width:1.2;" width="149.7871" x="123.661" y="740.3633"/><text fill="#1E293B" font-family="sans-serif" font-size="13" lengthAdjust="spacing" textLength="78.0001" x="147.9257" y="768.4302">&#20135;&#20986;&#25191;&#34892;&#35745;&#21010;</text><text fill="#64748B" font-family="sans-serif" font-size="13" lengthAdjust="spacing" textLength="109.5225" x="139.661" y="783.563">mode = CLARIFY</text><text fill="#1E293B" font-family="sans-serif" font-size="13" lengthAdjust="spacing" textLength="8.2646" x="249.1835" y="783.563">&#160;&#160;</text><ellipse cx="198.5546" cy="833.6289" fill="none" rx="11" ry="11" style="stroke:#222222;stroke-width:1;"/><ellipse cx="198.5546" cy="833.6289" fill="#222222" rx="6" ry="6" style="stroke:#222222;stroke-width:1;"/><polygon fill="#F1F5F9" points="150.5542,601.7266,246.5549,601.7266,258.5549,614.7109,246.5549,627.6953,150.5542,627.6953,138.5542,614.7109,150.5542,601.7266" style="stroke:#94A3B8;stroke-width:1.2;"/><text fill="#DC2626" font-family="sans-serif" font-size="11" lengthAdjust="spacing" textLength="32.9998" x="208.5546" y="643.9058">&#19981;&#20805;&#20998;</text><text fill="#334155" font-family="sans-serif" font-size="12" lengthAdjust="spacing" textLength="84.0006" x="156.5542" y="618.8652">&#20449;&#24687;&#26159;&#21542;&#20805;&#20998;&#65311;</text><text fill="#059669" font-family="sans-serif" font-size="11" lengthAdjust="spacing" textLength="21.9998" x="264.5549" y="606.1167">&#20805;&#20998;</text><rect fill="#F8FAFC" height="121.3984" rx="6" ry="6" style="stroke:#CBD5E1;stroke-width:1.5;" width="180.8004" x="108.1544" y="888.6289"/><path d="M267.2194,888.6289 L267.2194,908.7617 L257.2194,918.7617 L108.1544,918.7617" fill="none" style="stroke:#CBD5E1;stroke-width:1.5;"/><text fill="#475569" font-family="sans-serif" font-size="13" lengthAdjust="spacing" textLength="8.2646" x="117.1544" y="907.6958">&#160;&#160;</text><text fill="#2563EB" font-family="sans-serif" font-size="13" font-weight="700" lengthAdjust="spacing" textLength="47.271" x="125.419" y="907.6958">Step 4</text><text fill="#475569" font-family="sans-serif" font-size="13" lengthAdjust="spacing" textLength="8.2646" x="172.69" y="907.6958">&#160;&#160;</text><text fill="#475569" font-family="sans-serif" font-size="13" lengthAdjust="spacing" textLength="65.0001" x="180.9547" y="907.6958">&#23376;&#38382;&#39064;&#25286;&#20998;</text><text fill="#475569" font-family="sans-serif" font-size="13" lengthAdjust="spacing" textLength="8.2646" x="245.9547" y="907.6958">&#160;&#160;</text><rect fill="#F8FAFC" height="62.2656" rx="6" ry="6" style="stroke:#CBD5E1;stroke-width:1.2;" width="160.8004" x="118.1544" y="935.7617"/><text fill="#1E293B" font-family="sans-serif" font-size="13" lengthAdjust="spacing" textLength="78.0001" x="142.419" y="963.8286">&#22797;&#21512;&#38382;&#39064;&#25286;&#20998;</text><text fill="#64748B" font-family="sans-serif" font-size="13" lengthAdjust="spacing" textLength="120.5358" x="134.1544" y="978.9614">&#21333;&#36718;&#26368;&#22810; 4 &#20010;&#23376;&#38382;&#39064;</text><text fill="#1E293B" font-family="sans-serif" font-size="13" lengthAdjust="spacing" textLength="8.2646" x="254.6901" y="978.9614">&#160;&#160;</text><rect fill="#F8FAFC" height="121.3984" rx="6" ry="6" style="stroke:#CBD5E1;stroke-width:1.5;" width="216.2648" x="90.4221" y="1020.0273"/><path d="M249.4872,1020.0273 L249.4872,1040.1602 L239.4872,1050.1602 L90.4221,1050.1602" fill="none" style="stroke:#CBD5E1;stroke-width:1.5;"/><text fill="#475569" font-family="sans-serif" font-size="13" lengthAdjust="spacing" textLength="8.2646" x="99.4221" y="1039.0942">&#160;&#160;</text><text fill="#2563EB" font-family="sans-serif" font-size="13" font-weight="700" lengthAdjust="spacing" textLength="47.271" x="107.6868" y="1039.0942">Step 5</text><text fill="#475569" font-family="sans-serif" font-size="13" lengthAdjust="spacing" textLength="8.2646" x="154.9578" y="1039.0942">&#160;&#160;</text><text fill="#475569" font-family="sans-serif" font-size="13" lengthAdjust="spacing" textLength="65.0001" x="163.2224" y="1039.0942">&#30693;&#35782;&#22495;&#25910;&#32553;</text><text fill="#475569" font-family="sans-serif" font-size="13" lengthAdjust="spacing" textLength="8.2646" x="228.2225" y="1039.0942">&#160;&#160;</text><rect fill="#F8FAFC" height="62.2656" rx="6" ry="6" style="stroke:#CBD5E1;stroke-width:1.2;" width="196.2648" x="100.4221" y="1067.1602"/><text fill="#1E293B" font-family="sans-serif" font-size="13" lengthAdjust="spacing" textLength="156.0002" x="124.6868" y="1095.2271">&#20998;&#26512;&#27599;&#20010;&#23376;&#38382;&#39064;&#25152;&#23646;&#30693;&#35782;&#22495;</text><text fill="#64748B" font-family="sans-serif" font-size="13" lengthAdjust="spacing" textLength="78.0001" x="116.4221" y="1110.3599">&#32553;&#23567;&#26816;&#32034;&#33539;&#22260;</text><text fill="#1E293B" font-family="sans-serif" font-size="13" lengthAdjust="spacing" textLength="8.2646" x="194.4222" y="1110.3599">&#160;&#160;</text><polygon fill="#F1F5F9" points="162.5543,1161.4258,234.5548,1161.4258,246.5548,1174.4102,234.5548,1187.3945,162.5543,1187.3945,150.5543,1174.4102,162.5543,1161.4258" style="stroke:#94A3B8;stroke-width:1.2;"/><text fill="#334155" font-family="sans-serif" font-size="12" lengthAdjust="spacing" textLength="60.0005" x="168.5543" y="1178.5645">&#36335;&#30001;&#26041;&#21521;&#65311;</text><text fill="#2563EB" font-family="sans-serif" font-size="11" lengthAdjust="spacing" textLength="54.9996" x="89.5547" y="1165.8159">&#21305;&#37197;&#30693;&#35782;&#24211;</text><text fill="#D97706" font-family="sans-serif" font-size="11" lengthAdjust="spacing" textLength="54.9996" x="252.5548" y="1165.8159">&#24320;&#25918;&#24335;&#38382;&#39064;</text><rect fill="#F8FAFC" height="62.2656" rx="6" ry="6" style="stroke:#CBD5E1;stroke-width:1.2;" width="166.4751" x="16" y="1197.3945"/><text fill="#1E293B" font-family="sans-serif" font-size="13" lengthAdjust="spacing" textLength="78.0001" x="40.2646" y="1225.4614">&#20135;&#20986;&#25191;&#34892;&#35745;&#21010;</text><text fill="#64748B" font-family="sans-serif" font-size="13" lengthAdjust="spacing" textLength="126.2104" x="32" y="1240.5942">mode = RAG_CHAT</text><text fill="#1E293B" font-family="sans-serif" font-size="13" lengthAdjust="spacing" textLength="8.2646" x="158.2104" y="1240.5942">&#160;&#160;</text><rect fill="#F8FAFC" height="62.2656" rx="6" ry="6" style="stroke:#CBD5E1;stroke-width:1.2;" width="190.793" x="202.4751" y="1197.3945"/><text fill="#1E293B" font-family="sans-serif" font-size="13" lengthAdjust="spacing" textLength="78.0001" x="226.7397" y="1225.4614">&#20135;&#20986;&#25191;&#34892;&#35745;&#21010;</text><text fill="#64748B" font-family="sans-serif" font-size="13" lengthAdjust="spacing" textLength="150.5283" x="218.4751" y="1240.5942">mode = REACT_AGENT</text><text fill="#1E293B" font-family="sans-serif" font-size="13" lengthAdjust="spacing" textLength="8.2646" x="369.0034" y="1240.5942">&#160;&#160;</text><polygon fill="#F1F5F9" points="198.5546,1269.6602,210.5546,1281.6602,198.5546,1293.6602,186.5546,1281.6602,198.5546,1269.6602" style="stroke:#94A3B8;stroke-width:1.2;"/><rect fill="#3B82F6" height="62.2656" rx="6" ry="6" style="stroke:#CBD5E1;stroke-width:1.2;" width="305.7366" x="45.6863" y="1313.6602"/><text fill="#1E293B" font-family="sans-serif" font-size="13" lengthAdjust="spacing" textLength="8.2646" x="61.6863" y="1341.7271">&#160;&#160;</text><text fill="#FFFFFF" font-family="sans-serif" font-size="13" font-weight="700" lengthAdjust="spacing" textLength="231.2325" x="69.9509" y="1341.7271">&#36755;&#20986; ConversationExecutionPlan</text><text fill="#DBEAFE" font-family="sans-serif" font-size="13" lengthAdjust="spacing" textLength="265.4719" x="61.6863" y="1356.8599">&#25913;&#20889;&#38382;&#39064; + &#23376;&#38382;&#39064;&#21015;&#34920; + &#30693;&#35782;&#22495; + &#25191;&#34892;&#27169;&#24335;</text><text fill="#1E293B" font-family="sans-serif" font-size="13" lengthAdjust="spacing" textLength="8.2646" x="327.1582" y="1356.8599">&#160;&#160;</text><ellipse cx="198.5546" cy="1406.9258" fill="none" rx="11" ry="11" style="stroke:#222222;stroke-width:1;"/><ellipse cx="198.5546" cy="1406.9258" fill="#222222" rx="6" ry="6" style="stroke:#222222;stroke-width:1;"/><line style="stroke:#64748B;stroke-width:1.2;" x1="198.5546" x2="198.5546" y1="35" y2="55"/><polygon fill="#64748B" points="194.5546,45,198.5546,55,202.5546,45,198.5546,49" style="stroke:#64748B;stroke-width:1;"/><line style="stroke:#64748B;stroke-width:1.2;" x1="198.5546" x2="198.5546" y1="117.2656" y2="174.3984"/><polygon fill="#64748B" points="194.5546,164.3984,198.5546,174.3984,202.5546,164.3984,198.5546,168.3984" style="stroke:#64748B;stroke-width:1;"/><line style="stroke:#64748B;stroke-width:1.2;" x1="198.5546" x2="198.5546" y1="368.0625" y2="388.0625"/><polygon fill="#64748B" points="194.5546,378.0625,198.5546,388.0625,202.5546,378.0625,198.5546,382.0625" style="stroke:#64748B;stroke-width:1;"/><line style="stroke:#64748B;stroke-width:1.2;" x1="198.5546" x2="198.5546" y1="450.3281" y2="470.3281"/><polygon fill="#64748B" points="194.5546,460.3281,198.5546,470.3281,202.5546,460.3281,198.5546,464.3281" style="stroke:#64748B;stroke-width:1;"/><line style="stroke:#64748B;stroke-width:1.2;" x1="198.5546" x2="198.5546" y1="236.6641" y2="305.7969"/><polygon fill="#64748B" points="194.5546,295.7969,198.5546,305.7969,202.5546,295.7969,198.5546,299.7969" style="stroke:#64748B;stroke-width:1;"/><line style="stroke:#64748B;stroke-width:1.2;" x1="198.5546" x2="198.5546" y1="720.3633" y2="740.3633"/><polygon fill="#64748B" points="194.5546,730.3633,198.5546,740.3633,202.5546,730.3633,198.5546,734.3633" style="stroke:#64748B;stroke-width:1;"/><line style="stroke:#64748B;stroke-width:1.2;" x1="198.5546" x2="198.5546" y1="802.6289" y2="822.6289"/><polygon fill="#64748B" points="194.5546,812.6289,198.5546,822.6289,202.5546,812.6289,198.5546,816.6289" style="stroke:#64748B;stroke-width:1;"/><line style="stroke:#64748B;stroke-width:1.2;" x1="198.5546" x2="198.5546" y1="627.6953" y2="658.0977"/><polygon fill="#64748B" points="194.5546,648.0977,198.5546,658.0977,202.5546,648.0977,198.5546,652.0977" style="stroke:#64748B;stroke-width:1;"/><line style="stroke:#64748B;stroke-width:1.2;" x1="258.5549" x2="283.4481" y1="614.7109" y2="614.7109"/><polygon fill="#64748B" points="279.4481,737.8711,283.4481,747.8711,287.4481,737.8711,283.4481,741.8711" style="stroke:#64748B;stroke-width:1.2;"/><line style="stroke:#64748B;stroke-width:1.2;" x1="283.4481" x2="283.4481" y1="614.7109" y2="866.6289"/><line style="stroke:#64748B;stroke-width:1.2;" x1="283.4481" x2="198.5546" y1="866.6289" y2="866.6289"/><line style="stroke:#64748B;stroke-width:1.2;" x1="198.5546" x2="198.5546" y1="866.6289" y2="935.7617"/><polygon fill="#64748B" points="194.5546,925.7617,198.5546,935.7617,202.5546,925.7617,198.5546,929.7617" style="stroke:#64748B;stroke-width:1;"/><line style="stroke:#64748B;stroke-width:1.2;" x1="198.5546" x2="198.5546" y1="532.5938" y2="601.7266"/><polygon fill="#64748B" points="194.5546,591.7266,198.5546,601.7266,202.5546,591.7266,198.5546,595.7266" style="stroke:#64748B;stroke-width:1;"/><line style="stroke:#64748B;stroke-width:1.2;" x1="198.5546" x2="198.5546" y1="998.0273" y2="1067.1602"/><polygon fill="#64748B" points="194.5546,1057.1602,198.5546,1067.1602,202.5546,1057.1602,198.5546,1061.1602" style="stroke:#64748B;stroke-width:1;"/><line style="stroke:#64748B;stroke-width:1.2;" x1="150.5543" x2="99.2375" y1="1174.4102" y2="1174.4102"/><line style="stroke:#64748B;stroke-width:1.2;" x1="99.2375" x2="99.2375" y1="1174.4102" y2="1197.3945"/><polygon fill="#64748B" points="95.2375,1187.3945,99.2375,1197.3945,103.2375,1187.3945,99.2375,1191.3945" style="stroke:#64748B;stroke-width:1;"/><line style="stroke:#64748B;stroke-width:1.2;" x1="246.5548" x2="297.8716" y1="1174.4102" y2="1174.4102"/><line style="stroke:#64748B;stroke-width:1.2;" x1="297.8716" x2="297.8716" y1="1174.4102" y2="1197.3945"/><polygon fill="#64748B" points="293.8716,1187.3945,297.8716,1197.3945,301.8716,1187.3945,297.8716,1191.3945" style="stroke:#64748B;stroke-width:1;"/><line style="stroke:#64748B;stroke-width:1.2;" x1="99.2375" x2="99.2375" y1="1259.6602" y2="1281.6602"/><line style="stroke:#64748B;stroke-width:1.2;" x1="99.2375" x2="186.5546" y1="1281.6602" y2="1281.6602"/><polygon fill="#64748B" points="176.5546,1277.6602,186.5546,1281.6602,176.5546,1285.6602,180.5546,1281.6602" style="stroke:#64748B;stroke-width:1;"/><line style="stroke:#64748B;stroke-width:1.2;" x1="297.8716" x2="297.8716" y1="1259.6602" y2="1281.6602"/><line style="stroke:#64748B;stroke-width:1.2;" x1="297.8716" x2="210.5546" y1="1281.6602" y2="1281.6602"/><polygon fill="#64748B" points="220.5546,1277.6602,210.5546,1281.6602,220.5546,1285.6602,216.5546,1281.6602" style="stroke:#64748B;stroke-width:1;"/><line style="stroke:#64748B;stroke-width:1.2;" x1="198.5546" x2="198.5546" y1="1129.4258" y2="1161.4258"/><polygon fill="#64748B" points="194.5546,1151.4258,198.5546,1161.4258,202.5546,1151.4258,198.5546,1155.4258" style="stroke:#64748B;stroke-width:1;"/><line style="stroke:#64748B;stroke-width:1.2;" x1="198.5546" x2="198.5546" y1="1293.6602" y2="1313.6602"/><polygon fill="#64748B" points="194.5546,1303.6602,198.5546,1313.6602,202.5546,1303.6602,198.5546,1307.6602" style="stroke:#64748B;stroke-width:1;"/><line style="stroke:#64748B;stroke-width:1.2;" x1="198.5546" x2="198.5546" y1="1375.9258" y2="1395.9258"/><polygon fill="#64748B" points="194.5546,1385.9258,198.5546,1395.9258,202.5546,1385.9258,198.5546,1389.9258" style="stroke:#64748B;stroke-width:1;"/><?plantuml-src hLLjJzjM5FwUNt7LVMarRJHEOaYNMSgBtKsYNGTycJIfCebfBC16jcdNJPF2Ha9I0cGbfIrqPIbGqacGidPj805-J7slpQVzXLs_9Bc9CzHMuzFbdkFdFESvpybL9qLfXbVuQJ3E9oTlAVAib8hBKx82Fk7iFv_QpaW94_pibCR9adQTdnQ0oalgPwgWY1FzaqR57mNW3n11DSsdv3kYT0jCy5EgG4JSmeeaAC1F4O4PFfMoFg1zn6LKKUGxBaqwE1WSYlK6nz9YSb8IL1NuFwTxWnro_duX5pWu60hHOR8idzJ4sw9s5_pa0o3cqMk8Yt9nAo8hAK5nR-EnH8Zrjsz9NXI-9UhvMIeSYBbtBUq0I8Zyj2oblENyN8WB4mbarN0m6eWDTO94cK0Ww0-5kaDEDShkgWM1lwSuslUphsiOYYPgeYpzJmg4kXLm5UzLO8JqHWyZITQ4_cHOZgEnVNl8nBX4Z6FxaUccqbQ9z4etbI6RYOObyVck010PPuno5UNVeZTvD5SpJpTWTiTehg7b-_1nDJ8mpdmlHP8M-XNNiqmypMit5C7gn1Br6oMP5bGD_oChaG4xbG7W2n29kCDW69-lCu8BkAQBHuNe01jZC8LHJPW1VgjQ1w6LvSZBwCrri_QxkVyIdkRWlJ_Cu-DEwWLRIzoDtbW6r-wEVZiCd1Iud8ChVpaVUVf0nOAnjsOys34Qy-PMLg_Vq-kBQ6s1QCBIwdseK-TI7nw-1XpwCFlAUDKmTxVGqr8V-bOYpETmq9t9_0hSEF4GDnghi9HtUckpDaevZ0kFLs5XwUpX_jcpHsGV3hvpZyg7CFVOWsfMTc2sYeeBUcFhNMREU3A7fT7h3REsvqKotzQCyW5QEuIbts1-6-wlUrbkxfYr72vfx9N1083D32gVmEOAFgEzNVsmy14w1yxLsO55MndqzsAlkk84kAYVLh35qQCQB3s7sInM-f_cvYMWfGK9N6nX9U8KJT6CNbzoKbf0bp28tNehqNbe67k1Db6-X4xcKJtRahv3ioCCnx8KIp7cypbqy8ipOLlqh4EiPtbS8aohhdwq2nUEK67Nh1JD_GhCt_T8FYsd1F0bY0z7HxxclYFrjJ1KJPx11m4_OPrsBuV2D9REswiWfV0B-Pvp2Pux5xXNSfstc2Eg4CQ7sqlOqMIIfpUuzC0ytaTFCd1x7GI1Nl-p3ViHHWgTIzYnBjpSHEKtHlD5FyBsbgBQ2ia35JBmu6dxO-z6D5_0bolOdyRhPsRnLxZnkeUvPL9oi_hOq-q35W_FiajkgQDLSd0VP9MHwDMRyQ-YOoIHReCameE3bscclRxTadzuGJOQ7xiPlSfUxwvfkytNTxtCarKC3kAoT5jGLFlDONyGahFMuSOKB_LVjaICZN8iu_pOEQJ1fw0zAvX_Q5Qg-AOzBdns6a3L2kxpFvyoQut-1G00?></g></svg>